<svg width="19" height="25" viewBox="0 0 19 25" fill="none" xmlns="http://www.w3.org/2000/svg">
<path d="M14.0625 12.5H4.6875V15.625H14.0625V12.5ZM18.4082 5.12695L13.6279 0.341797C13.4082 0.12207 13.1104 0 12.7979 0H12.5V6.25H18.75V5.95215C18.75 5.64453 18.6279 5.34668 18.4082 5.12695ZM10.9375 6.64062V0H1.17188C0.522461 0 0 0.522461 0 1.17188V23.8281C0 24.4775 0.522461 25 1.17188 25H17.5781C18.2275 25 18.75 24.4775 18.75 23.8281V7.8125H12.1094C11.4648 7.8125 10.9375 7.28516 10.9375 6.64062ZM3.125 3.51562C3.125 3.2998 3.2998 3.125 3.51562 3.125H7.42188C7.6377 3.125 7.8125 3.2998 7.8125 3.51562V4.29688C7.8125 4.5127 7.6377 4.6875 7.42188 4.6875H3.51562C3.2998 4.6875 3.125 4.5127 3.125 4.29688V3.51562ZM3.125 6.64062C3.125 6.4248 3.2998 6.25 3.51562 6.25H7.42188C7.6377 6.25 7.8125 6.4248 7.8125 6.64062V7.42188C7.8125 7.6377 7.6377 7.8125 7.42188 7.8125H3.51562C3.2998 7.8125 3.125 7.6377 3.125 7.42188V6.64062ZM15.625 21.4844C15.625 21.7002 15.4502 21.875 15.2344 21.875H11.3281C11.1123 21.875 10.9375 21.7002 10.9375 21.4844V20.7031C10.9375 20.4873 11.1123 20.3125 11.3281 20.3125H15.2344C15.4502 20.3125 15.625 20.4873 15.625 20.7031V21.4844ZM15.625 11.7188V16.4062C15.625 16.8379 15.2754 17.1875 14.8438 17.1875H3.90625C3.47461 17.1875 3.125 16.8379 3.125 16.4062V11.7188C3.125 11.2871 3.47461 10.9375 3.90625 10.9375H14.8438C15.2754 10.9375 15.625 11.2871 15.625 11.7188Z" fill="#939393"/>
</svg>
