<svg width="25" height="22" viewBox="0 0 25 22" fill="none" xmlns="http://www.w3.org/2000/svg">
<path d="M22.0405 4.6875H3.42719C2.99554 4.6875 2.64594 4.33789 2.64594 3.90625C2.64594 3.47461 2.99554 3.125 3.42719 3.125H22.1772C22.6088 3.125 22.9584 2.77539 22.9584 2.34375C22.9584 1.04932 21.9091 0 20.6147 0H2.64594C0.919861 0 -0.479065 1.39893 -0.479065 3.125V18.75C-0.479065 20.4761 0.919861 21.875 2.64594 21.875H22.0405C23.4086 21.875 24.5209 20.8237 24.5209 19.5312V7.03125C24.5209 5.73877 23.4086 4.6875 22.0405 4.6875ZM19.8334 14.8438C18.9706 14.8438 18.2709 14.144 18.2709 13.2812C18.2709 12.4185 18.9706 11.7188 19.8334 11.7188C20.6962 11.7188 21.3959 12.4185 21.3959 13.2812C21.3959 14.144 20.6962 14.8438 19.8334 14.8438Z" fill="#939393"/>
</svg>
